<svg height="155.58" width="200" xmlns="http://www.w3.org/2000/svg"><g transform="matrix(3.1437 0 0 3.1437 -3270 -2134.4)"><path d="m0 0v-.103h.095c.021 0 .039.005.052.013.012.008.019.022.019.039s-.007.03-.019.038c-.013.009-.031.013-.052.013zm.096.072c.049 0 .087-.011.114-.033s.04-.052.04-.09c0-.032-.01-.058-.032-.079-.021-.02-.051-.033-.091-.038l.126-.145h-.098l-.117.144h-.038v-.144h-.082v.385zm-.025-.518c.045 0 .087.009.125.026.039.017.073.04.102.069s.052.063.069.103c.016.039.025.081.025.126s-.009.087-.025.126c-.017.039-.04.074-.069.103s-.063.052-.102.069c-.038.016-.08.024-.125.024s-.088-.008-.127-.024c-.04-.017-.075-.04-.104-.069s-.052-.064-.068-.103c-.017-.039-.025-.081-.025-.126s.008-.087.025-.126c.016-.04.039-.074.068-.103s.064-.052.104-.069c.039-.017.082-.026.127-.026m0 .739c.059 0 .113-.011.165-.033.051-.021.095-.051.134-.089.038-.037.068-.081.09-.132.022-.05.033-.104.033-.161s-.011-.111-.033-.161-.052-.094-.09-.132c-.039-.037-.083-.067-.134-.089-.052-.022-.106-.033-.165-.033-.06 0-.115.011-.167.033s-.097.052-.135.089c-.038.038-.068.082-.09.132s-.033.104-.033.161.011.111.033.161c.022.051.052.095.09.132.038.038.083.068.135.089.052.022.107.033.167.033m-38.961 1.483c0 .734.481 1.337 1.267 1.337.751 0 1.258-.577 1.258-1.337s-.507-1.337-1.258-1.337c-.786 0-1.267.603-1.267 1.337m3.381 0v2.088h-.908v-.507c-.288.376-.725.612-1.319.612-1.171 0-2.089-.918-2.089-2.193 0-1.276.918-2.193 2.089-2.193.594 0 1.031.236 1.319.612v-.507h.908zm30.684 0c0 .734.481 1.337 1.267 1.337.752 0 1.258-.577 1.258-1.337s-.506-1.337-1.258-1.337c-.786 0-1.267.603-1.267 1.337m3.382 0v3.765h-.909v-2.184c-.288.376-.725.612-1.319.612-1.171 0-2.089-.918-2.089-2.193 0-1.276.918-2.193 2.089-2.193.594 0 1.031.236 1.319.612v-.507h.909zm-22.795 1.38c.585 0 .961-.367 1.057-1.013h-2.167c.097.603.463 1.013 1.11 1.013m.018.813c-1.224 0-2.08-.891-2.08-2.193 0-1.328.891-2.193 2.141-2.193.629 0 1.205.157 1.712.585l-.445.673c-.35-.279-.796-.437-1.215-.437-.585 0-1.118.271-1.249 1.023h3.101c.009.113.018.227.018.349-.009 1.302-.813 2.193-1.983 2.193m10.964-2.193c0 .734.481 1.337 1.267 1.337.751 0 1.258-.577 1.258-1.337s-.507-1.337-1.258-1.337c-.786 0-1.267.603-1.267 1.337m3.381 0v2.088h-.908v-.507c-.289.376-.725.612-1.319.612-1.171 0-2.089-.918-2.089-2.193 0-1.276.918-2.193 2.089-2.193.594 0 1.03.236 1.319.612v-.507h.908zm-8.509 0c0-1.267.882-2.193 2.228-2.193.629 0 1.048.14 1.502.498l-.436.734c-.341-.245-.699-.376-1.093-.376-.725.009-1.258.533-1.258 1.337s.533 1.328 1.258 1.337c.394 0 .752-.131 1.093-.376l.436.734c-.454.358-.873.498-1.502.498-1.346 0-2.228-.926-2.228-2.193m11.707 2.193c-.524 0-.865-.245-1.101-.612v.507h-.9v-4.176h.909v2.341c0 .691.297 1.075.891 1.075.184 0 .376-.026.568-.105l.28.856c-.201.079-.463.114-.647.114m-24.341-.437c-.437.288-1.039.437-1.703.437-1.058 0-1.739-.507-1.739-1.337 0-.681.507-1.101 1.441-1.232l.429-.061c.498-.07.733-.201.733-.437 0-.323-.332-.507-.952-.507-.629 0-1.083.201-1.389.437l-.428-.707c.498-.367 1.127-.542 1.808-.542 1.206 0 1.905.568 1.905 1.363 0 .734-.55 1.118-1.459 1.249l-.428.062c-.393.052-.708.13-.708.41 0 .306.297.489.795.489.533 0 1.049-.201 1.302-.358zm11.716.437c-.524 0-.865-.245-1.1-.612v.507h-.9v-4.176h.908v2.341c0 .691.297 1.075.891 1.075.184 0 .376-.026.568-.105l.28.856c-.201.079-.463.114-.647.114m-7.749-.105h-1.485v1.267h-.918v-1.267h-.847v-.83h.847v-1.905c0-.969.376-1.546 1.45-1.546.394 0 .848.122 1.136.323l-.262.778c-.271-.157-.568-.236-.804-.236-.454 0-.602.28-.602.699v1.887h1.485zm-13.577-4.176v2.621c0 .987-.629 1.651-1.643 1.66-.533.009-1.083-.157-1.468-.743-.288.463-.742.743-1.38.743-.446 0-.882-.131-1.223-.62v.515h-.909v-4.176h.917v2.315c0 .725.402 1.11 1.023 1.11.603 0 .908-.393.908-1.101v-2.324h.918v2.315c0 .725.419 1.11 1.022 1.11.62 0 .917-.393.917-1.101v-2.324z" fill="#231f20" transform="matrix(1.25 0 0 -1.25 1102.5 727.74)"/><path d="m0 0v.61h-.159l-.184-.419-.183.419h-.16v-.61h.113v.46l.172-.397h.117l.172.398v-.461zm-1.009 0v.506h.204v.103h-.52v-.103h.204v-.506z" fill="#f79410" transform="matrix(1.25 0 0 -1.25 1103.2 710.77)"/><path d="m1080.6 714.05h-17.202v-30.915h17.202z" fill="#ff5f00"/><path d="m0 0c0 5.017 2.349 9.486 6.007 12.366-2.675 2.106-6.051 3.363-9.72 3.363-8.686 0-15.727-7.042-15.727-15.729s7.041-15.729 15.727-15.729c3.669 0 7.045 1.257 9.72 3.363-3.658 2.88-6.007 7.349-6.007 12.366" fill="#eb001b" transform="matrix(1.25 0 0 -1.25 1064.5 698.59)"/><path d="m0 0c0-8.687-7.041-15.729-15.727-15.729-3.669 0-7.045 1.257-9.721 3.363 3.659 2.88 6.008 7.349 6.008 12.366s-2.349 9.486-6.008 12.366c2.676 2.106 6.052 3.363 9.721 3.363 8.686 0 15.727-7.042 15.727-15.729" fill="#f79e1b" transform="matrix(1.25 0 0 -1.25 1103.8 698.59)"/></g></svg>