<svg enable-background="new 0 0 130 90" viewBox="0 0 130 90" xmlns="http://www.w3.org/2000/svg"><g transform="matrix(4.4299631 0 0 4.4299631 -81.165783 -105.04783)"><g fill="#00579f"><path d="m31.1 38.4h-2.4l1.5-9.1h2.4z"/><path d="m39.7 29.5c-.5-.2-1.2-.4-2.1-.4-2.3 0-4 1.2-4 3 0 1.3 1.2 2 2.1 2.5.9.4 1.2.7 1.2 1.1 0 .6-.7.9-1.4.9-.9 0-1.5-.1-2.2-.5l-.4-.1-.3 2.1c.6.3 1.6.5 2.6.5 2.5 0 4.1-1.2 4.1-3.1 0-1-.6-1.8-2-2.5-.8-.4-1.3-.7-1.3-1.1s.4-.8 1.4-.8c.8 0 1.3.2 1.8.4l.2.1z"/><path d="m42.8 35.2c.2-.5.9-2.6.9-2.6s.2-.5.3-.9l.2.8s.4 2.2.5 2.7c-.3 0-1.4 0-1.9 0zm3-5.9h-1.8c-.6 0-1 .2-1.2.8l-3.5 8.4h2.5s.4-1.1.5-1.4h3c.1.3.3 1.4.3 1.4h2.2z"/><path d="m26.7 29.3-2.3 6.3-.3-1.3c-.4-1.5-1.8-3.1-3.3-3.8l2.1 8h2.5l3.7-9.2z"/></g><path d="m22.2 29.3h-3.8v.2c3 .8 4.9 2.6 5.8 4.8l-.9-4.3c-.1-.6-.5-.7-1.1-.7z" fill="#faa61a"/></g></svg>