<svg enable-background="new 0 0 130 90" viewBox="0 0 130 90" xmlns="http://www.w3.org/2000/svg" xmlns:xlink="http://www.w3.org/1999/xlink"><linearGradient id="a" gradientTransform="matrix(1 0 0 -1 0 92)" gradientUnits="userSpaceOnUse" x1="91.6336" x2="129.8504" y1="57.716" y2="57.716"><stop offset=".3" stop-color="#00b4e6"/><stop offset="1" stop-color="#088ccb"/></linearGradient><g fill="#4db45e"><path d="m35 26.7s-5.1 0-6.4 4.8c-1.2 4.4-4.7 16.7-4.8 17h-1s-3.6-12.5-4.8-17c-1.3-4.8-6.4-4.8-6.4-4.8h-11.6v36.8h11.6v-21.8h.4.5l6.7 21.8h8l6.8-21.8h1v21.8h11.6v-36.8z"/><path d="m77.2 26.7s-3.4.3-5 3.9l-8.2 18h-1v-21.9h-11.5v36.8h10.9s3.5-.3 5.1-3.9l8-18h1v21.8h11.6v-36.7z"/><path d="m93.3 43.4v20.1h11.6v-11.7h12.5c5.5 0 10.1-3.5 11.8-8.3h-35.9z"/></g><path d="m117.3 26.7h-25.7c1.3 7 6.5 12.6 13.3 14.4 1.5.4 3.2.6 4.8.6h19.8c.2-.8.3-1.7.3-2.6.1-6.8-5.6-12.4-12.5-12.4z" fill="url(#a)"/></svg>